<svg width="372" height="80" viewBox="0 0 372 80" fill="none" xmlns="http://www.w3.org/2000/svg">
<path d="M118.618 5.38447H115.061L110.8 16.3793L106.502 5.38447H102.908V19.0381H105.168V7.97148L109.466 19.0381H112.06L116.358 7.97148V19.0381H118.618V5.38447Z" fill="#2F2F2F"/>
<path d="M122.546 6.74984H124.991V4.59399H122.546V6.74984ZM122.657 19.0381H124.88V8.25892H122.657V19.0381Z" fill="#2F2F2F"/>
<path d="M136.181 8.25892V12.5706H130.772V8.25892H128.548V19.0381H130.772V14.5109H136.181V19.0381H138.405V8.25892H136.181Z" fill="#2F2F2F"/>
<path d="M141.962 6.74984H144.407V4.59399H141.962V6.74984ZM142.073 19.0381H144.296V8.25892H142.073V19.0381Z" fill="#2F2F2F"/>
<path d="M152.707 19.2178C155.079 19.2178 157.042 18.0321 157.672 15.984L155.56 15.3373C155.079 16.5948 154.041 17.3853 152.707 17.3853C150.669 17.3853 149.409 15.9122 149.409 13.6485C149.409 11.3849 150.669 9.91174 152.707 9.91174C154.078 9.91174 155.079 10.7022 155.56 11.9598L157.672 11.313C157.042 9.26498 155.116 8.07927 152.707 8.07927C149.409 8.07927 147.149 10.3429 147.149 13.6485C147.149 16.9541 149.409 19.2178 152.707 19.2178Z" fill="#2F2F2F"/>
<path d="M168.677 8.25892H158.45V10.1632H162.452V19.0381H164.675V10.1632H168.677V8.25892Z" fill="#2F2F2F"/>
<path d="M171.641 14.3312H180.201C180.275 14.0797 180.275 13.9 180.275 13.6485C180.275 10.271 178.163 8.07927 174.902 8.07927C171.641 8.07927 169.418 10.3429 169.418 13.6485C169.418 16.8464 171.419 19.2178 175.087 19.2178C177.422 19.2178 178.978 18.3554 179.904 17.2775L178.385 15.984C177.755 16.7745 176.718 17.3853 175.087 17.3853C173.123 17.3853 171.901 16.1996 171.641 14.3312ZM174.902 9.8758C176.569 9.8758 177.718 10.9178 178.014 12.6784H171.678C172.012 10.9537 173.16 9.8758 174.902 9.8758Z" fill="#2F2F2F"/>
<path d="M188.76 8.07927C187.167 8.07927 185.833 8.76195 184.943 9.94767L184.795 8.25892H182.868V22.6312H185.092V17.6009C185.944 18.6429 187.241 19.2178 188.76 19.2178C191.613 19.2178 193.614 16.9541 193.614 13.6485C193.614 10.271 191.687 8.07927 188.76 8.07927ZM188.167 17.3853C186.203 17.3853 184.943 15.9122 184.943 13.6485C184.943 11.3849 186.203 9.91174 188.167 9.91174C190.131 9.91174 191.354 11.3849 191.354 13.6485C191.354 15.9122 190.131 17.3853 188.167 17.3853Z" fill="#2F2F2F"/>
<path d="M201.024 19.2178C203.396 19.2178 205.36 18.0321 205.99 15.984L203.878 15.3373C203.396 16.5948 202.358 17.3853 201.024 17.3853C198.987 17.3853 197.727 15.9122 197.727 13.6485C197.727 11.3849 198.987 9.91174 201.024 9.91174C202.395 9.91174 203.396 10.7022 203.878 11.9598L205.99 11.313C205.36 9.26498 203.433 8.07927 201.024 8.07927C197.727 8.07927 195.466 10.3429 195.466 13.6485C195.466 16.9541 197.727 19.2178 201.024 19.2178Z" fill="#2F2F2F"/>
<path d="M216.994 8.25892H206.768V10.1632H210.769V19.0381H212.993V10.1632H216.994V8.25892Z" fill="#2F2F2F"/>
<path d="M226.443 13.5048C227.443 13.0736 228.036 12.2472 228.036 11.0615C228.036 9.12126 226.517 8.25892 224.071 8.25892H219.106V19.0381H224.479C226.888 19.0381 228.333 18.0321 228.333 16.0918C228.333 14.7983 227.666 13.936 226.443 13.5048ZM221.255 9.9836H224.183C225.22 9.9836 225.85 10.4507 225.85 11.313C225.85 12.3191 225.331 12.7143 224.071 12.7143H221.255V9.9836ZM224.257 17.3135H221.255V14.3312H224.109C225.368 14.3312 226.109 14.9061 226.109 15.8403C226.109 16.7745 225.442 17.3135 224.257 17.3135Z" fill="#2F2F2F"/>
<path d="M235.817 19.2178C239.152 19.2178 241.449 16.9541 241.449 13.6485C241.449 10.271 239.226 8.07927 235.817 8.07927C232.483 8.07927 230.185 10.3429 230.185 13.6485C230.185 17.026 232.408 19.2178 235.817 19.2178ZM235.817 17.3853C233.779 17.3853 232.446 15.9122 232.446 13.6485C232.446 11.3849 233.779 9.91174 235.817 9.91174C237.855 9.91174 239.189 11.3849 239.189 13.6485C239.189 15.9122 237.855 17.3853 235.817 17.3853Z" fill="#2F2F2F"/>
<path d="M112.245 44.7286V35.8537H110.022V44.7286H104.76V35.8537H102.537V46.6329H111.578V49.148H113.69V44.7286H112.245Z" fill="#2F2F2F"/>
<path d="M123.732 35.8537L118.322 43.6147V35.8537H116.136V46.6329H118.433L123.843 38.8V46.6329H126.029V35.8537H123.732Z" fill="#2F2F2F"/>
<path d="M141.591 35.7459C140.294 35.7459 139.183 36.2489 138.442 37.2191V32.2606H136.218V37.1472C135.477 36.213 134.403 35.7459 133.106 35.7459C130.512 35.7459 128.697 37.9377 128.697 41.2433C128.697 44.5848 130.438 46.7407 133.106 46.7407C134.403 46.7407 135.477 46.2377 136.218 45.2675V50.226H138.442V45.3035C139.183 46.2377 140.257 46.7407 141.591 46.7407C144.148 46.7407 146.001 44.5489 146.001 41.2433C146.001 37.9017 144.259 35.7459 141.591 35.7459ZM133.662 44.9801C131.994 44.9801 130.957 43.5069 130.957 41.2433C130.957 38.9797 131.994 37.5065 133.662 37.5065C135.292 37.5065 136.33 38.9797 136.33 41.2433C136.33 43.5069 135.292 44.9801 133.662 44.9801ZM141.035 44.9801C139.368 44.9801 138.331 43.5069 138.331 41.2433C138.331 38.9797 139.368 37.5065 141.035 37.5065C142.666 37.5065 143.74 38.9797 143.74 41.2433C143.74 43.5069 142.666 44.9801 141.035 44.9801Z" fill="#2F2F2F"/>
<path d="M154.523 35.674C152.929 35.674 151.596 36.3567 150.706 37.5424L150.558 35.8537H148.631V50.226H150.854V45.1957C151.707 46.2377 153.004 46.8125 154.523 46.8125C157.376 46.8125 159.377 44.5489 159.377 41.2433C159.377 37.8658 157.45 35.674 154.523 35.674ZM153.93 44.9801C151.966 44.9801 150.706 43.5069 150.706 41.2433C150.706 38.9797 151.966 37.5065 153.93 37.5065C155.894 37.5065 157.116 38.9797 157.116 41.2433C157.116 43.5069 155.894 44.9801 153.93 44.9801Z" fill="#2F2F2F"/>
<path d="M166.861 46.8125C170.196 46.8125 172.494 44.5489 172.494 41.2433C172.494 37.8658 170.27 35.674 166.861 35.674C163.527 35.674 161.229 37.9377 161.229 41.2433C161.229 44.6208 163.453 46.8125 166.861 46.8125ZM166.861 44.9801C164.824 44.9801 163.49 43.5069 163.49 41.2433C163.49 38.9797 164.824 37.5065 166.861 37.5065C168.899 37.5065 170.233 38.9797 170.233 41.2433C170.233 43.5069 168.899 44.9801 166.861 44.9801Z" fill="#2F2F2F"/>
<path d="M182.498 41.0996C183.498 40.6684 184.091 39.842 184.091 38.6563C184.091 36.716 182.572 35.8537 180.126 35.8537H175.161V46.6329H180.534C182.943 46.6329 184.388 45.6268 184.388 43.6866C184.388 42.3931 183.721 41.5307 182.498 41.0996ZM177.31 37.5784H180.238C181.275 37.5784 181.905 38.0455 181.905 38.9078C181.905 39.9139 181.386 40.3091 180.126 40.3091H177.31V37.5784ZM180.312 44.9082H177.31V41.926H180.164C181.423 41.926 182.164 42.5009 182.164 43.4351C182.164 44.3693 181.497 44.9082 180.312 44.9082Z" fill="#2F2F2F"/>
<path d="M191.872 46.8125C195.207 46.8125 197.504 44.5489 197.504 41.2433C197.504 37.8658 195.281 35.674 191.872 35.674C188.538 35.674 186.24 37.9377 186.24 41.2433C186.24 44.6208 188.463 46.8125 191.872 46.8125ZM191.872 44.9801C189.834 44.9801 188.5 43.5069 188.5 41.2433C188.5 38.9797 189.834 37.5065 191.872 37.5065C193.91 37.5065 195.244 38.9797 195.244 41.2433C195.244 43.5069 193.91 44.9801 191.872 44.9801Z" fill="#2F2F2F"/>
<path d="M198.357 34.3446H200.765V32.1888H198.357V34.3446ZM202.173 34.3446H204.582V32.1888H202.173V34.3446ZM200.357 46.6329H202.581V35.8537H200.357V46.6329Z" fill="#2F2F2F"/>
<path d="M221.033 35.8537H210.806V37.758H214.808V46.6329H217.031V37.758H221.033V35.8537Z" fill="#2F2F2F"/>
<path d="M229.037 35.674C227.443 35.674 226.109 36.3567 225.22 37.5424L225.072 35.8537H223.145V50.226H225.368V45.1957C226.221 46.2377 227.517 46.8125 229.037 46.8125C231.89 46.8125 233.891 44.5489 233.891 41.2433C233.891 37.8658 231.964 35.674 229.037 35.674ZM228.444 44.9801C226.48 44.9801 225.22 43.5069 225.22 41.2433C225.22 38.9797 226.48 37.5065 228.444 37.5065C230.408 37.5065 231.63 38.9797 231.63 41.2433C231.63 43.5069 230.408 44.9801 228.444 44.9801Z" fill="#2F2F2F"/>
<path d="M245.377 44.7645C244.895 44.7645 244.673 44.5489 244.673 44.0818V39.2312C244.673 37.0035 243.043 35.674 240.375 35.674C238.448 35.674 236.855 36.3208 235.558 37.5065L236.929 38.9078C237.818 38.0095 239.004 37.4706 240.264 37.4706C241.672 37.4706 242.598 38.0455 242.598 38.9078C242.598 39.7342 241.783 39.8779 240.116 40.0935C237.966 40.4169 235.336 40.9918 235.336 43.6506C235.336 45.519 236.781 46.8125 238.967 46.8125C240.597 46.8125 242.079 46.0939 242.857 44.9801C243.006 46.2377 243.636 46.7048 245.007 46.7048C245.377 46.7048 245.673 46.6688 245.785 46.6329V44.7645H245.377ZM239.337 45.0519C238.189 45.0519 237.522 44.513 237.522 43.5069C237.522 42.1056 238.967 41.89 240.375 41.6745C241.449 41.4948 242.116 41.387 242.524 41.1355V42.5368C242.524 43.9022 241.042 45.0519 239.337 45.0519Z" fill="#2F2F2F"/>
<path d="M255.9 35.8537V40.1654H250.49V35.8537H248.267V46.6329H250.49V42.1056H255.9V46.6329H258.123V35.8537H255.9Z" fill="#2F2F2F"/>
<path d="M266.349 46.8125C268.721 46.8125 270.684 45.6268 271.314 43.5788L269.202 42.932C268.721 44.1896 267.683 44.9801 266.349 44.9801C264.311 44.9801 263.051 43.5069 263.051 41.2433C263.051 38.9797 264.311 37.5065 266.349 37.5065C267.72 37.5065 268.721 38.297 269.202 39.5545L271.314 38.9078C270.684 36.8597 268.758 35.674 266.349 35.674C263.051 35.674 260.791 37.9377 260.791 41.2433C260.791 44.5489 263.051 46.8125 266.349 46.8125Z" fill="#2F2F2F"/>
<path d="M285.58 35.7459C284.283 35.7459 283.171 36.2489 282.43 37.2191V32.2606H280.207V37.1472C279.466 36.213 278.391 35.7459 277.095 35.7459C274.501 35.7459 272.685 37.9377 272.685 41.2433C272.685 44.5848 274.427 46.7407 277.095 46.7407C278.391 46.7407 279.466 46.2377 280.207 45.2675V50.226H282.43V45.3035C283.171 46.2377 284.246 46.7407 285.58 46.7407C288.136 46.7407 289.989 44.5489 289.989 41.2433C289.989 37.9017 288.248 35.7459 285.58 35.7459ZM277.65 44.9801C275.983 44.9801 274.945 43.5069 274.945 41.2433C274.945 38.9797 275.983 37.5065 277.65 37.5065C279.281 37.5065 280.318 38.9797 280.318 41.2433C280.318 43.5069 279.281 44.9801 277.65 44.9801ZM285.024 44.9801C283.357 44.9801 282.319 43.5069 282.319 41.2433C282.319 38.9797 283.357 37.5065 285.024 37.5065C286.654 37.5065 287.729 38.9797 287.729 41.2433C287.729 43.5069 286.654 44.9801 285.024 44.9801Z" fill="#2F2F2F"/>
<path d="M297.437 46.8125C300.772 46.8125 303.069 44.5489 303.069 41.2433C303.069 37.8658 300.846 35.674 297.437 35.674C294.102 35.674 291.805 37.9377 291.805 41.2433C291.805 44.6208 294.028 46.8125 297.437 46.8125ZM297.437 44.9801C295.399 44.9801 294.065 43.5069 294.065 41.2433C294.065 38.9797 295.399 37.5065 297.437 37.5065C299.475 37.5065 300.809 38.9797 300.809 41.2433C300.809 43.5069 299.475 44.9801 297.437 44.9801Z" fill="#2F2F2F"/>
<path d="M311.628 35.674C310.035 35.674 308.701 36.3567 307.812 37.5424L307.663 35.8537H305.737V50.226H307.96V45.1957C308.812 46.2377 310.109 46.8125 311.628 46.8125C314.481 46.8125 316.482 44.5489 316.482 41.2433C316.482 37.8658 314.555 35.674 311.628 35.674ZM311.035 44.9801C309.071 44.9801 307.812 43.5069 307.812 41.2433C307.812 38.9797 309.071 37.5065 311.035 37.5065C312.999 37.5065 314.222 38.9797 314.222 41.2433C314.222 43.5069 312.999 44.9801 311.035 44.9801Z" fill="#2F2F2F"/>
<path d="M332.267 35.8537H328.895L325.745 44.2255L322.559 35.8537H319.15V46.6329H321.299V38.1173L324.523 46.6329H326.894L330.118 38.1173V46.6329H332.267V35.8537Z" fill="#2F2F2F"/>
<path d="M344.791 44.7645C344.309 44.7645 344.087 44.5489 344.087 44.0818V39.2312C344.087 37.0035 342.456 35.674 339.788 35.674C337.862 35.674 336.268 36.3208 334.972 37.5065L336.343 38.9078C337.232 38.0095 338.418 37.4706 339.677 37.4706C341.085 37.4706 342.012 38.0455 342.012 38.9078C342.012 39.7342 341.197 39.8779 339.529 40.0935C337.38 40.4169 334.749 40.9918 334.749 43.6506C334.749 45.519 336.194 46.8125 338.38 46.8125C340.011 46.8125 341.493 46.0939 342.271 44.9801C342.419 46.2377 343.049 46.7048 344.42 46.7048C344.791 46.7048 345.087 46.6688 345.198 46.6329V44.7645H344.791ZM338.751 45.0519C337.602 45.0519 336.935 44.513 336.935 43.5069C336.935 42.1056 338.38 41.89 339.788 41.6745C340.863 41.4948 341.53 41.387 341.938 41.1355V42.5368C341.938 43.9022 340.455 45.0519 338.751 45.0519Z" fill="#2F2F2F"/>
<path d="M357.389 44.7286V35.8537H355.166V44.7286H349.904V35.8537H347.681V46.6329H356.722V49.148H358.834V44.7286H357.389Z" fill="#2F2F2F"/>
<path d="M361.353 34.3446H363.799V32.1888H361.353V34.3446ZM361.465 46.6329H363.688V35.8537H361.465V46.6329Z" fill="#2F2F2F"/>
<path d="M365.54 34.3446H367.949V32.1888H365.54V34.3446ZM369.357 34.3446H371.765V32.1888H369.357V34.3446ZM367.541 46.6329H369.764V35.8537H367.541V46.6329Z" fill="#2F2F2F"/>
<path d="M111.838 60.574L109.096 68.2991H107.947L103.76 60.574H101.129L105.538 68.2991H104.019C103.13 68.9458 102.648 69.9519 102.648 71.1017C102.648 73.0779 104.056 74.4073 106.168 74.4073C108.132 74.4073 109.54 73.2216 110.392 70.958L114.32 60.574H111.838ZM106.242 72.503C105.353 72.503 104.797 71.9281 104.797 71.0658C104.797 70.6705 104.946 70.3112 105.205 70.0238H108.466L108.169 70.8502C107.725 71.964 107.169 72.503 106.242 72.503Z" fill="#2F2F2F"/>
<path d="M125.955 72.3233C125.621 72.3233 125.399 72.1077 125.399 71.7844V67.832H123.361L126.177 63.4485H123.806L121.175 67.7242H118.915V59.8554H116.691V74.2277H118.915V69.7004H123.213V72.2515C123.213 73.545 123.991 74.2277 125.362 74.2277H126.362V72.3233H125.955Z" fill="#2F2F2F"/>
<path d="M134.848 63.2688C133.254 63.2688 131.92 63.9515 131.031 65.1372L130.883 63.4485H128.956V77.8207H131.179V72.7904C132.031 73.8324 133.328 74.4073 134.848 74.4073C137.701 74.4073 139.701 72.1437 139.701 68.8381C139.701 65.4606 137.775 63.2688 134.848 63.2688ZM134.255 72.5748C132.291 72.5748 131.031 71.1017 131.031 68.8381C131.031 66.5744 132.291 65.1013 134.255 65.1013C136.218 65.1013 137.441 66.5744 137.441 68.8381C137.441 71.1017 136.218 72.5748 134.255 72.5748Z" fill="#2F2F2F"/>
<path d="M151.188 72.3593C150.706 72.3593 150.484 72.1437 150.484 71.6766V66.8259C150.484 64.5982 148.854 63.2688 146.186 63.2688C144.259 63.2688 142.666 63.9156 141.369 65.1013L142.74 66.5026C143.629 65.6043 144.815 65.0653 146.075 65.0653C147.483 65.0653 148.409 65.6402 148.409 66.5026C148.409 67.329 147.594 67.4727 145.926 67.6883C143.777 68.0116 141.147 68.5865 141.147 71.2454C141.147 73.1138 142.592 74.4073 144.778 74.4073C146.408 74.4073 147.89 73.6887 148.668 72.5748C148.817 73.8324 149.446 74.2995 150.817 74.2995C151.188 74.2995 151.484 74.2636 151.596 74.2277V72.3593H151.188ZM145.148 72.6467C144 72.6467 143.333 72.1077 143.333 71.1017C143.333 69.7004 144.778 69.4848 146.186 69.2692C147.26 69.0896 147.927 68.9818 148.335 68.7303V70.1316C148.335 71.4969 146.853 72.6467 145.148 72.6467Z" fill="#2F2F2F"/>
<path d="M152.262 61.9394H154.671V59.7835H152.262V61.9394ZM156.079 61.9394H158.487V59.7835H156.079V61.9394ZM154.263 74.2277H156.487V63.4485H154.263V74.2277Z" fill="#2F2F2F"/>
<path d="M167.788 63.4485V67.7601H162.378V63.4485H160.155V74.2277H162.378V69.7004H167.788V74.2277H170.011V63.4485H167.788Z" fill="#2F2F2F"/>
<path d="M181.09 63.4485L175.68 71.2095V63.4485H173.494V74.2277H175.791L181.201 66.3948V74.2277H183.387V63.4485H181.09Z" fill="#2F2F2F"/>
<path fill-rule="evenodd" clip-rule="evenodd" d="M8.02799 7.30745L8.02581 7.30959C5.07393 10.1849 3.53737 13.8643 2.75386 19.0742C1.96367 24.3286 1.96036 30.9717 1.96036 39.6905C1.96036 48.4093 1.96366 55.0525 2.75387 60.3087C3.53738 65.5204 5.07405 69.2041 8.0269 72.0869L8.02799 72.088C10.9731 74.9699 14.7419 76.47 20.0783 77.2349C25.4603 78.0064 32.2647 78.0096 41.1952 78.0096C50.1258 78.0096 56.9302 78.0064 62.3141 77.2349C67.6523 76.47 71.4254 74.9698 74.3783 72.0869C77.3313 69.2039 78.8679 65.5236 79.6513 60.314C80.4415 55.0596 80.4448 48.4166 80.4448 39.6905C80.4448 30.9645 80.4415 24.3214 79.6513 19.067C78.8679 13.8575 77.3313 10.1772 74.3783 7.29415C71.4255 4.41849 67.6559 2.92188 62.32 2.15876C56.9377 1.38901 50.1331 1.3858 41.1952 1.3858C32.2572 1.3858 25.4529 1.38903 20.0728 2.16048C14.7386 2.92536 10.9734 4.42535 8.02799 7.30745ZM75.3351 6.35999C81.798 12.6697 81.798 22.3138 81.798 39.6905C81.798 57.0673 81.798 66.7114 75.3351 73.0211C68.8722 79.3307 58.9792 79.3307 41.1952 79.3307C23.4113 79.3307 13.5182 79.3307 7.07006 73.0211C0.607178 66.7114 0.607178 57.0529 0.607178 39.6905C0.607178 22.3282 0.607178 12.6697 7.07006 6.37436C13.5182 0.0646973 23.3966 0.0646973 41.1952 0.0646973C58.9939 0.0646973 68.8722 0.0646973 75.3351 6.35999Z" fill="#2F2F2F"/>
<path d="M39.4827 64.7419C36.6164 62.5824 34.5025 59.3609 33.8217 55.6084H24.5778V16.1359C29.558 18.5785 33.1051 23.995 33.5351 29.5884L34.9324 40.669L34.2517 40.5628C32.7468 40.5628 31.457 41.9434 31.457 43.3241C31.457 44.5985 32.4602 45.696 33.7501 45.9792L35.434 46.3686C38.2287 41.1646 39.8052 36.0668 39.8052 31.0398C39.8052 26.5084 39.1961 22.0125 39.1245 17.4103C39.1245 15.357 39.9127 13.4808 41.2025 12.0293C42.4924 13.5162 43.2806 15.357 43.2806 17.4103C43.2806 22.0125 42.5999 26.5439 42.5999 31.0398C42.5999 36.0314 44.1764 41.1646 46.9711 46.3686L48.655 45.9792C49.9449 45.696 50.9481 44.5985 50.9481 43.3241C50.9481 41.9434 49.6583 40.5628 48.1534 40.5628L47.4727 40.669L48.87 29.5884C49.5508 23.995 52.8471 18.5785 57.8273 16.1359V55.6084H48.5834C47.9026 59.3255 45.8962 62.6886 42.9224 64.7419C42.2416 65.2375 41.6325 65.8393 41.2384 66.6182C40.7726 65.8039 40.1635 65.2375 39.4827 64.7419ZM28.9489 41.9788C29.3431 40.492 30.4538 39.2175 31.8153 38.4387L30.7046 29.3052C30.3104 26.473 29.1281 23.9242 27.3366 21.8355V41.9434H28.9489V41.9788ZM33.6426 52.847C33.6426 51.4664 33.8575 50.192 34.1442 48.9175L32.8543 48.6343C30.9554 48.0325 29.4864 46.581 28.9848 44.7047H27.4083V52.847H33.6426ZM39.7694 52.847C39.7694 51.1832 38.4795 49.6963 36.7955 49.5193C36.5089 50.5814 36.2939 51.6788 36.2939 52.847H39.7694ZM39.7694 55.6084H36.6881C37.1897 57.7678 38.2645 59.7149 39.7694 61.4142V55.6084ZM44.1406 47.0766C42.9582 44.9172 41.8475 42.6515 41.1667 40.315C40.486 42.6869 39.3753 44.9172 38.1929 47.0766C39.3753 47.3598 40.3785 48.1387 41.1667 49.0237C41.955 48.1387 42.9582 47.3598 44.1406 47.0766ZM46.0395 52.847C46.0395 51.6788 45.8245 50.5814 45.5379 49.5193C43.8539 49.7317 42.5641 51.1832 42.5641 52.847H46.0395ZM45.6454 55.6084H42.5641V61.4142C44.0689 59.7149 45.1438 57.7678 45.6454 55.6084ZM54.9968 52.847V44.7047H53.4203C52.9187 46.581 51.4497 48.0325 49.5508 48.6343L48.2609 48.9175C48.5476 50.192 48.7625 51.4664 48.7625 52.847H54.9968ZM54.9968 41.9788V21.8709C53.2054 23.9242 51.9155 26.473 51.6289 29.3406L50.5182 38.4741C51.9155 39.2529 52.9904 40.5274 53.3845 42.0142H54.9968V41.9788Z" fill="#2F2F2F"/>
</svg>
